<svg xmlns="http://www.w3.org/2000/svg" viewBox="0 0 32 32"><path fill="#fff" d="M1 6.75v18.5h8.938c.826 0 6.53-.167 6.53-5.375 0-3.255-2.237-4.36-3.374-4.688.835-.394 2.5-1.33 2.5-3.843 0-1.4-.2-4.594-5.906-4.594H1zm20.375 1.719v1.687h6.906V8.47h-6.906zM5.062 9.906h3.813c.36 0 2.781-.19 2.781 2.125 0 1.98-1.748 2.188-2.469 2.188H5.064V9.906zM25 11.687c-5.221 0-6.313 4.537-6.313 6.5 0 5.831 4.781 6.5 6.313 6.5 4.129 0 5.301-2.67 5.781-4.156h-3c-.116.382-.993 1.625-2.656 1.625-2.79 0-3.031-2.181-3.031-3.156h8.875c.18-3.376-1.299-7.313-5.969-7.313zm-.094 2.532c.832 0 1.505.241 1.907.687.404.45.7 1.105.78 1.969h-5.5c.017-.24.07-.512.157-.813a2.38 2.38 0 0 1 .438-.875c.22-.268.524-.504.875-.687.359-.186.802-.281 1.343-.281zM5.063 17h4.406c.875 0 2.937.135 2.937 2.656 0 2.442-2.599 2.438-3 2.438H5.062V17z"/></svg>