<?xml version="1.0" standalone="no"?>
<!DOCTYPE svg PUBLIC "-//W3C//DTD SVG 20010904//EN"
 "http://www.w3.org/TR/2001/REC-SVG-20010904/DTD/svg10.dtd">
<svg version="1.0" xmlns="http://www.w3.org/2000/svg"
 width="640.000000pt" height="640.000000pt" viewBox="0 0 640.000000 640.000000"
 preserveAspectRatio="xMidYMid meet">
<metadata>
Created by potrace 1.11, written by Peter Selinger 2001-2013
</metadata>
<g transform="translate(0.000000,640.000000) scale(0.100000,-0.100000)"
fill="#000000" stroke="none">
<path d="M10 3200 l0 -3200 3195 0 3195 0 0 3200 0 3200 -3195 0 -3195 0 0
-3200z m2630 1638 c105 -160 112 -174 99 -194 -13 -20 -115 -149 -157 -199
-28 -32 -133 -163 -182 -225 -25 -32 -72 -90 -105 -130 -74 -89 -238 -293
-330 -410 -20 -25 -51 -63 -70 -85 -43 -52 -109 -133 -165 -205 -25 -31 -71
-88 -102 -127 -32 -39 -58 -75 -58 -82 0 -10 84 -124 117 -159 7 -7 34 -41 60
-75 26 -34 58 -73 70 -87 12 -14 43 -53 70 -87 48 -61 120 -152 230 -290 32
-39 96 -120 143 -179 47 -58 111 -139 142 -178 32 -39 85 -107 119 -151 35
-44 65 -82 69 -85 3 -3 41 -49 84 -103 51 -64 76 -103 72 -113 -3 -9 -23 -41
-45 -73 -21 -31 -69 -103 -106 -161 -38 -58 -70 -107 -72 -109 -2 -3 -10 4
-17 15 -8 10 -24 30 -36 44 -12 14 -43 52 -69 85 -61 79 -282 358 -330 415
-20 25 -59 74 -85 110 -27 36 -54 70 -60 75 -7 6 -40 46 -74 90 -73 95 -161
206 -201 255 -54 66 -157 195 -219 275 -34 44 -98 125 -142 180 -44 55 -98
123 -119 150 -21 28 -57 72 -79 100 l-41 49 22 27 c35 44 190 237 217 272 14
18 79 100 145 182 66 82 134 168 150 190 17 23 47 61 67 86 20 24 75 94 123
154 48 61 108 137 135 170 27 33 111 139 187 235 77 96 166 208 199 249 32 40
78 98 101 128 60 78 116 143 123 143 4 0 58 -77 120 -172z m1390 35 c58 -72
150 -188 205 -258 55 -70 105 -133 111 -139 5 -6 34 -42 64 -81 69 -90 175
-223 204 -255 12 -14 44 -54 71 -90 53 -70 157 -200 211 -265 32 -39 54 -67
194 -247 35 -46 70 -89 77 -96 7 -7 34 -41 60 -75 26 -34 65 -84 88 -112 22
-27 46 -57 53 -66 11 -14 3 -29 -51 -95 -153 -191 -337 -423 -372 -469 -21
-27 -41 -52 -44 -55 -4 -3 -31 -36 -61 -75 -30 -38 -57 -72 -60 -75 -3 -3 -30
-36 -60 -75 -30 -38 -97 -123 -150 -189 -52 -65 -122 -153 -155 -196 -59 -76
-100 -128 -195 -245 -26 -33 -87 -109 -135 -170 -47 -60 -98 -123 -112 -140
-14 -16 -32 -40 -41 -52 -19 -30 -24 -29 -46 10 -11 17 -61 96 -113 175 l-94
143 56 72 c31 40 86 108 121 152 35 44 88 110 117 146 46 58 126 157 250 308
37 46 116 145 212 266 166 209 406 503 419 514 27 22 35 8 -124 206 -118 146
-298 372 -335 419 -22 29 -103 130 -180 225 -77 96 -151 188 -165 205 -13 17
-67 84 -120 150 -52 65 -113 142 -134 170 -22 28 -57 71 -78 95 -21 25 -36 51
-34 58 3 7 30 50 59 96 30 45 78 119 107 165 30 45 58 81 64 79 6 -2 58 -62
116 -134z"/>
</g>
</svg>
