
<?xml version="1.0" encoding="utf-8"?>
<!-- Generator: Adobe Illustrator 16.0.0, SVG Export Plug-In . SVG Version: 6.00 Build 0)  -->
<!DOCTYPE svg PUBLIC "-//W3C//DTD SVG 1.1//EN" "http://www.w3.org/Graphics/SVG/1.1/DTD/svg11.dtd">
<svg version="1.1" id="Vrstva_1" xmlns="http://www.w3.org/2000/svg" xmlns:xlink="http://www.w3.org/1999/xlink" x="0px" y="0px"
	 width="3363.337px" height="741.074px" viewBox="0 0 3363.337 741.074" enable-background="new 0 0 3363.337 741.074"
	 xml:space="preserve">
<g>
	<defs>
		<rect id="SVGID_1_" x="-641.649" y="-474.572" width="4677.17" height="1700.79"/>
	</defs>
	<clipPath id="SVGID_2_">
		<use xlink:href="#SVGID_1_"  overflow="visible"/>
	</clipPath>
	<path clip-path="url(#SVGID_2_)" fill="#58595B" d="M112.31,111.445c-5.316,5.065-8.122,11.525-8.122,18.691v391.982h53.643V320.2
		h162.811l16.088-53.643H157.831V156.967h215.874v-53.11H131C123.881,103.856,117.609,106.396,112.31,111.445"/>
	<rect x="440.675" y="103.855" clip-path="url(#SVGID_2_)" fill="#58595B" width="53.643" height="418.264"/>
	<path clip-path="url(#SVGID_2_)" fill="#58595B" d="M812.713,414.018l-211.907-302.29c-3.089-4.641-7.48-8.028-13.077-10.082
		c-5.724-2.086-12.2-1.866-16.685-0.204c-5.801,1.599-10.474,4.939-13.893,9.926c-3.245,4.751-4.892,9.988-4.892,15.539v395.213
		h53.643V211.974l211.374,301.741c5.065,7.604,12.576,11.618,21.718,11.618c3.214,0,5.786-0.251,8.655-1.019
		c5.441-1.976,9.863-5.269,13.156-9.816c3.325-4.609,5.018-9.988,5.018-15.978V103.856h-53.11V414.018z"/>
	<path clip-path="url(#SVGID_2_)" fill="#58595B" d="M1184.216,414.018L972.31,111.728c-3.089-4.641-7.48-8.028-13.077-10.082
		c-5.724-2.086-12.216-1.866-16.685-0.204c-5.801,1.599-10.474,4.939-13.893,9.926c-3.245,4.751-4.892,9.988-4.892,15.539v395.213
		h53.643V211.974l211.374,301.741c5.065,7.604,12.576,11.618,21.718,11.618c3.214,0,5.786-0.251,8.655-1.019
		c5.441-1.976,9.863-5.269,13.156-9.816c3.325-4.609,5.018-9.988,5.018-15.978V103.856h-53.11V414.018z"/>
	<path clip-path="url(#SVGID_2_)" fill="#58595B" d="M1653.912,156.684c-18.284-18.284-40.848-32.459-67.082-42.134
		c-26.014-9.596-55.948-14.457-88.955-14.457c-33.008,0-62.942,4.861-88.972,14.457c-26.249,9.691-48.813,23.866-67.066,42.134
		c-18.299,18.299-32.474,40.957-42.149,67.348c-9.581,26.171-14.442,56.011-14.442,88.688c0,33.055,4.861,62.989,14.458,88.956
		c9.675,26.233,23.85,48.798,42.133,67.081c18.284,18.299,40.848,32.459,67.066,42.118c25.983,9.597,55.917,14.458,88.972,14.458
		c33.054,0,62.988-4.861,88.955-14.458c26.187-9.643,48.767-23.819,67.082-42.118c18.283-18.299,32.459-40.863,42.118-67.081
		c9.612-25.999,14.473-55.933,14.473-88.956c0-32.646-4.861-62.487-14.458-88.688
		C1686.371,197.641,1672.195,174.983,1653.912,156.684 M1656.844,312.721c0,51.965-13.579,91.966-40.346,118.921
		c-26.751,26.925-66.658,40.582-118.623,40.582c-51.966,0-91.873-13.657-118.624-40.582
		c-26.782-26.955-40.362-66.971-40.362-118.921c0-51.589,13.58-91.433,40.362-118.388c26.767-26.939,66.674-40.597,118.624-40.597
		c51.949,0,91.856,13.658,118.623,40.597C1643.265,221.288,1656.844,261.116,1656.844,312.721"/>
	<path clip-path="url(#SVGID_2_)" fill="#58595B" d="M1815.061,103.856h-53.643V495.29c0,7.104,2.774,13.626,7.98,18.816
		c5.222,5.237,11.729,8.013,18.849,8.013h240.634l16.104-53.644h-229.924V103.856z"/>
	<path clip-path="url(#SVGID_2_)" fill="#58595B" d="M2408.617,156.684c-18.284-18.284-40.849-32.459-67.082-42.134
		c-26.015-9.596-55.948-14.457-88.955-14.457c-33.008,0-62.942,4.861-88.972,14.457c-26.25,9.691-48.813,23.866-67.066,42.134
		c-18.299,18.299-32.475,40.957-42.148,67.348c-9.582,26.171-14.442,56.011-14.442,88.688c0,33.055,4.86,62.989,14.458,88.956
		c9.675,26.233,23.85,48.798,42.133,67.081c18.284,18.299,40.848,32.459,67.066,42.118c25.982,9.597,55.916,14.458,88.972,14.458
		c33.054,0,62.987-4.861,88.955-14.458c26.187-9.643,48.767-23.819,67.082-42.118c18.282-18.299,32.458-40.863,42.118-67.081
		c9.611-25.999,14.473-55.933,14.473-88.956c0-32.646-4.861-62.487-14.458-88.688
		C2441.075,197.641,2426.899,174.983,2408.617,156.684 M2411.549,312.721c0,51.965-13.579,91.966-40.346,118.921
		c-26.751,26.925-66.658,40.582-118.623,40.582c-51.966,0-91.873-13.657-118.624-40.582
		c-26.782-26.955-40.362-66.971-40.362-118.921c0-51.589,13.58-91.433,40.362-118.388c26.767-26.939,66.674-40.597,118.624-40.597
		c51.949,0,91.856,13.658,118.623,40.597C2397.97,221.288,2411.549,261.116,2411.549,312.721"/>
	<path clip-path="url(#SVGID_2_)" fill="#58595B" d="M2846.276,439.451c-26.767,21.749-63.24,32.772-108.494,32.772
		c-51.965,0-91.871-13.657-118.623-40.581c-26.782-26.955-40.361-66.972-40.361-118.921c0-51.589,13.579-91.434,40.361-118.388
		c26.767-26.94,66.674-40.597,118.623-40.597c43.106,0,78.528,10.129,105.279,30.091l6.414,4.798l32.176-42.902l-6.396-4.814
		c-36.003-27.08-82.262-40.817-137.473-40.817c-33.007,0-62.941,4.861-88.971,14.458c-26.25,9.69-48.813,23.866-67.065,42.134
		c-18.3,18.299-32.475,40.957-42.149,67.348c-9.581,26.17-14.441,56.01-14.441,88.689c0,33.054,4.86,62.989,14.457,88.957
		c9.675,26.232,23.85,48.797,42.134,67.081c18.282,18.299,40.848,32.459,67.065,42.117c25.982,9.597,55.916,14.457,88.971,14.457
		c64.479,0,116.382-18.267,154.925-54.976c4.782-5.754,7.213-12.183,7.213-19.099V283.132l-53.644,16.088V439.451z"/>
	<polygon clip-path="url(#SVGID_2_)" fill="#58595B" points="3223.394,103.856 3099.251,283.571 2974.591,103.856 2909.344,103.856
		3072.453,337.261 3072.453,522.119 3125.563,522.119 3125.563,338.845 3288.594,103.856 	"/>
	<rect x="104.923" y="583.185" clip-path="url(#SVGID_2_)" fill="#00BBDE" width="961.66" height="67.912"/>
	<rect x="1136.578" y="583.185" clip-path="url(#SVGID_2_)" fill="#FDB913" width="961.66" height="67.912"/>
	<rect x="2163.903" y="583.185" clip-path="url(#SVGID_2_)" fill="#89C762" width="961.66" height="67.912"/>
</g>
</svg>
