<svg xmlns="http://www.w3.org/2000/svg" x="0px" y="0px"
     width="100" height="100"
     viewBox="0 0 50 50"
     style=";fill:#FFFFFF;"
     class="icon icons8-sitecore-filled">    <path d="M 25 2 C 12.317 2 2 12.318 2 25 C 2 37.682 12.317 48 25 48 C 37.683 48 48 37.682 48 25 C 48 12.318 37.683 2 25 2 z M 25 8 C 34.374 8 42 15.626 42 25 C 42 34.374 34.374 42 25 42 C 15.626 42 8 34.374 8 25 C 8 15.626 15.626 8 25 8 z M 34.244141 13.210938 L 27.712891 17.755859 L 28.138672 18.486328 C 28.145672 18.501328 28.96 19.921 29 22 C 29.033 23.654 29 31 18 31 C 15 31 11 30 11 30 C 11 30 14 33 22 33 C 32.842 33 32.999 21.488047 33 20.998047 L 33.003906 20.001953 L 39.132812 20 C 38.170812 17.299 36.458141 14.951937 34.244141 13.210938 z M 34.9375 22 C 34.6295 25.204 32.804 35 22 35 C 18.625 35 15.506187 34.335094 13.117188 33.621094 C 14.864187 34.993094 18.375 37 24 37 C 31.335 37 35.095812 30.568906 35.132812 30.503906 L 35.662109 29.574219 L 38.511719 31.472656 C 39.455719 29.509656 40 27.32 40 25 C 40 23.97 39.876734 22.971 39.677734 22 L 34.9375 22 z M 36.28125 32.388672 C 34.84525 34.385672 30.792 39 24 39 C 21.617 39 19.569984 38.665062 17.833984 38.164062 C 19.962984 39.332062 22.403 40 25 40 C 30.236 40 34.84725 37.298656 37.53125 33.222656 L 36.28125 32.388672 z"></path></svg>
